<svg width="120" height="120" viewBox="0 0 120 120" fill="none" xmlns="http://www.w3.org/2000/svg">
<rect width="120" height="120" rx="60" fill="#FAE4D4"/>
<path d="M76.9605 41.3769C74.0355 43.6629 71.4052 44.1804 68.874 43.9059C66.219 43.6202 63.6045 42.4659 60.6885 41.1654L60.5692 41.1114C57.7905 39.8694 54.7192 38.4969 51.4882 38.1482C48.0885 37.7814 44.5807 38.5442 40.9605 41.3747C40.7586 41.5325 40.5953 41.7343 40.483 41.9647C40.3708 42.1951 40.3124 42.4481 40.3125 42.7044V80.2502C40.3125 80.6977 40.4903 81.1269 40.8068 81.4434C41.1232 81.7599 41.5524 81.9377 42 81.9377C42.4476 81.9377 42.8768 81.7599 43.1932 81.4434C43.5097 81.1269 43.6875 80.6977 43.6875 80.2502V69.1442C46.356 67.2654 48.7815 66.8424 51.126 67.0967C53.781 67.3802 56.3955 68.5344 59.3115 69.8372L59.4307 69.8889C62.2095 71.1332 65.2807 72.5034 68.5117 72.8522C71.9115 73.2189 75.4192 72.4562 79.0395 69.6257C79.2414 69.4678 79.4047 69.266 79.517 69.0356C79.6292 68.8052 79.6876 68.5522 79.6875 68.2959V42.7044C79.6872 42.3883 79.598 42.0786 79.4303 41.8107C79.2625 41.5427 79.0228 41.3273 78.7386 41.189C78.4544 41.0506 78.137 40.9948 77.8226 41.0281C77.5082 41.0613 77.2095 41.1822 76.9605 41.3769Z" fill="#C96955"/>
</svg>
