<svg width="120" height="120" viewBox="0 0 120 120" fill="none" xmlns="http://www.w3.org/2000/svg">
<rect width="120" height="120" rx="60" fill="#FAE4D4"/>
<path d="M60 51H42C40.8065 51 39.6619 51.4741 38.818 52.318C37.9741 53.1619 37.5 54.3065 37.5 55.5V64.5C37.5 65.6935 37.9741 66.8381 38.818 67.682C39.6619 68.5259 40.8065 69 42 69H44.25V78C44.25 78.5967 44.4871 79.169 44.909 79.591C45.331 80.0129 45.9033 80.25 46.5 80.25H51C51.5967 80.25 52.169 80.0129 52.591 79.591C53.0129 79.169 53.25 78.5967 53.25 78V69H60L71.25 78V42L60 51ZM81.375 60C81.375 63.8475 79.215 67.335 75.75 69V51C79.1925 52.6875 81.375 56.175 81.375 60Z" fill="#C96955"/>
</svg>
